<svg width="45" height="41" viewBox="0 0 45 41" fill="none" xmlns="http://www.w3.org/2000/svg">
<path d="M12.1483 25.147C8.36604 26.5722 6.61338 27.5745 6.61338 27.5745C6.18882 27.7911 5.65231 28.3054 5.42308 28.7183L2.53098 33.9026C2.3013 34.3143 2.48727 34.5331 2.94394 34.3897C2.94394 34.3897 4.10481 34.0221 5.23132 33.6971C7.9678 32.9039 13.0255 31.7289 13.0255 31.7289C13.4925 31.6208 14.0624 31.1952 14.2921 30.783L18.2751 23.6432C18.5042 23.2303 18.32 23.0143 17.8643 23.1613C17.8643 23.1613 15.0288 24.0602 12.1483 25.147Z" fill="#e31b22"/>
<path d="M37.8388 28.2198C38.3168 28.1809 38.5198 27.8125 38.2901 27.4012L34.4766 20.565C34.2465 20.1524 33.6703 19.872 33.1958 19.9423L25.5554 21.2179C25.085 21.3099 24.8887 21.7215 25.118 22.1333L28.5577 28.3008C28.7879 28.7135 29.3658 29.0131 29.8439 28.9704L37.8388 28.2198Z" fill="#e31b22"/>
<path d="M32.652 17.2939L28.8238 10.4298C28.5941 10.0172 28.0362 9.8122 27.5858 9.97225C22.3625 11.4677 17.1955 13.7722 14.7405 15.3758C13.3816 16.2637 12.1998 17.2254 12.1998 17.2254C11.8314 17.5259 11.3417 18.108 11.1116 18.5207L7.89618 24.2849C7.66695 24.6957 7.83374 24.8715 8.269 24.6726C8.269 24.6726 9.10431 24.2923 10.0395 23.9054C13.214 22.5892 16.6872 21.434 20.3646 20.4749C20.4346 20.4574 20.5055 20.4392 20.5751 20.4213C24.6432 19.386 32.2091 18.1797 32.2091 18.1797C32.6823 18.1046 32.8821 17.7064 32.652 17.2939Z" fill="#e31b22"/>
<path d="M14.526 13.3095C14.526 13.3095 18.1522 11.2035 20.6108 10.196C22.7729 9.30941 26.6158 8.21212 26.6158 8.21212C27.0765 8.08041 27.2647 7.63601 27.0359 7.22388L23.4753 0.842125C22.7399 -0.32537 21.6045 -0.279141 20.9007 0.982117L20.8918 0.98866L14.1938 12.9963C13.9641 13.4081 14.1139 13.5493 14.526 13.3095Z" fill="#e31b22"/>
<path d="M44.2493 38.0849L40.141 30.7206C39.9113 30.3089 39.4538 29.9883 39.126 30.0067L38.8222 30.028C23.6084 31.0564 12.4971 33.5601 5.85482 35.4777C3.88497 36.0465 1.57039 36.8258 1.57039 36.8258C1.11684 36.978 0.794403 37.0634 0.327027 37.8511C0.327027 37.8511 0.292239 37.9148 0.205276 38.0726L0.207508 38.0787C-0.368685 39.3065 0.290456 40.2803 1.7461 40.2803L1.81879 40.2886H42.7097C44.1663 40.2886 44.8245 39.3117 44.2493 38.0849Z" fill="#e31b22"/>
</svg>
