<svg width="471" height="69" viewBox="0 0 471 69" fill="none" xmlns="http://www.w3.org/2000/svg">
<g opacity="0.36">
<g opacity="0.65">
<path d="M23.3189 39.5557C19.0734 41.1556 17.106 42.2806 17.106 42.2806C16.6293 42.5239 16.0271 43.1011 15.7698 43.5647L12.5234 49.384C12.2656 49.8461 12.4744 50.0918 12.9869 49.9309C12.9869 49.9309 14.29 49.5181 15.5545 49.1534C18.6263 48.2629 24.3036 46.944 24.3036 46.944C24.8278 46.8226 25.4675 46.3449 25.7254 45.8823L30.1964 37.8678C30.4535 37.4042 30.2469 37.1617 29.7352 37.3269C29.7352 37.3269 26.5523 38.3358 23.3189 39.5557Z" fill="#2f2f2f"/>
<path d="M52.1569 43.0049C52.6934 42.9614 52.9213 42.5477 52.6635 42.0861L48.3828 34.4123C48.1245 33.9493 47.4777 33.6344 46.945 33.7134L38.3686 35.1453C37.8406 35.2486 37.6202 35.7106 37.8776 36.1728L41.7387 43.096C41.9971 43.5591 42.6458 43.8955 43.1825 43.8475L52.1569 43.0049Z" fill="#2f2f2f"/>
<path d="M46.3346 30.7405L42.0374 23.0355C41.7796 22.5723 41.1533 22.3422 40.6477 22.5219C34.7845 24.2006 28.9845 26.7874 26.2287 28.5874C24.7034 29.5842 23.3768 30.6636 23.3768 30.6636C22.9633 31.0011 22.4135 31.6545 22.1553 32.1176L18.5459 38.5881C18.2886 39.0491 18.4758 39.2465 18.9644 39.0233C18.9644 39.0233 19.902 38.5964 20.9518 38.1621C24.5152 36.6846 28.4139 35.3878 32.5419 34.3113C32.6204 34.2917 32.7 34.2712 32.7781 34.2511C37.3446 33.0889 45.8375 31.7348 45.8375 31.7348C46.3686 31.6506 46.5929 31.2037 46.3346 30.7405Z" fill="#2f2f2f"/>
<path d="M25.9881 26.2679C25.9881 26.2679 30.0585 23.9039 32.8182 22.773C35.2452 21.7779 39.5589 20.5461 39.5589 20.5461C40.076 20.3983 40.2873 19.8994 40.0305 19.4367L36.0336 12.2732C35.2082 10.9626 33.9337 11.0145 33.1436 12.4304L33.1336 12.4377L25.6151 25.9164C25.3572 26.3786 25.5254 26.5372 25.9881 26.2679Z" fill="#2f2f2f"/>
<path d="M59.3527 54.0787L54.7411 45.8121C54.4832 45.35 53.9697 44.9902 53.6017 45.0108L53.2607 45.0347C36.183 46.1891 23.7104 48.9995 16.2544 51.1522C14.0433 51.7905 11.4451 52.6654 11.4451 52.6654C10.936 52.8363 10.574 52.9321 10.0494 53.8163C10.0494 53.8163 10.0104 53.8877 9.91274 54.065L9.91525 54.0718C9.26845 55.4499 10.0084 56.5431 11.6423 56.5431L11.7239 56.5523H57.6245C59.2595 56.5523 59.9983 55.4559 59.3527 54.0787Z" fill="#2f2f2f"/>
<path d="M73.8559 38.7125H80.0465L78.5214 33.2789C77.8038 30.7524 77.1754 27.7676 76.9511 25.9305C76.6819 27.7676 76.0544 30.7156 75.3814 33.2789L73.8559 38.7125ZM80.8088 41.5448H73.093L71.3438 47.8227C71.2093 48.2444 71.0754 48.4348 69.6386 48.4348C69.1462 48.4348 68.2038 48.3963 67.3507 48.3213L75.3368 21.9891C75.4262 21.6068 75.9201 21.4529 76.7269 21.4529C77.3543 21.4529 77.9822 21.4919 78.4316 21.5678L86.4614 47.7831C86.5502 48.2059 86.3259 48.4348 84.8916 48.4348C84.353 48.4348 83.6353 48.4348 82.7381 48.3583L80.8088 41.5448Z" fill="#2f2f2f"/>
<path d="M88.2999 30.1412C90.0503 29.4897 93.0112 28.8392 95.3879 28.8392C100.097 28.8392 101.712 30.2556 101.712 33.9663V47.7455C101.712 48.3586 101.623 48.3586 97.9451 48.3586V34.8852C97.9451 32.4755 97.4957 31.5572 95.2534 31.5572C94.3106 31.5572 92.9203 31.7859 91.9334 32.2462V47.7455C91.9334 48.3586 91.8436 48.3586 88.2999 48.3586V30.1412Z" fill="#2f2f2f"/>
<path d="M104.986 21.6446C104.986 20.2271 105.614 20.2271 108.62 20.2271V30.3304C110.011 29.2983 111.939 28.8402 113.645 28.8402C117.502 28.8402 118.31 30.6763 118.31 33.8908V47.746C118.31 48.358 118.131 48.358 114.541 48.358V34.7717C114.541 33.088 114.182 31.71 111.985 31.71C110.998 31.71 109.697 31.9773 108.62 32.7822V47.746C108.62 48.358 108.575 48.358 104.986 48.358V21.6446Z" fill="#2f2f2f"/>
<path d="M127.997 38.9817C126.205 38.9817 124.678 39.5172 124.678 42.8473C124.678 45.6417 125.844 46.1387 127.596 46.1387C128.581 46.1387 129.568 45.832 129.972 45.4888C130.107 44.2263 130.107 41.3928 130.107 39.327C129.523 39.096 128.626 38.9817 127.997 38.9817ZM121.403 29.873C122.167 29.4517 124.813 28.8392 128.223 28.8392C132.079 28.8392 133.784 30.0643 133.784 33.5092V35.5373C133.784 39.9384 133.739 44.5311 133.516 47.4408C132.304 48.0518 130.195 48.7419 127.28 48.7419C124.006 48.7788 120.866 48.1679 120.866 42.9227C120.866 37.6041 123.825 36.6464 126.832 36.6464C127.818 36.6464 129.21 36.7618 130.107 37.1446V34.1213C130.107 32.3232 129.12 31.8635 127.325 31.8635C125.082 31.8635 122.705 32.2463 121.403 32.7058C121.001 32.0933 120.911 31.4044 120.911 30.9447C120.911 30.524 121.046 30.1017 121.403 29.873Z" fill="#2f2f2f"/>
<path d="M137.015 30.1412C138.765 29.4897 141.725 28.8392 144.102 28.8392C148.811 28.8392 150.425 30.2556 150.425 33.9663V47.7455C150.425 48.3586 150.335 48.3586 146.658 48.3586V34.8852C146.658 32.4755 146.21 31.5572 143.966 31.5572C143.023 31.5572 141.635 31.7859 140.648 32.2462V47.7455C140.648 48.3586 140.558 48.3586 137.015 48.3586V30.1412Z" fill="#2f2f2f"/>
<path d="M184.249 47.3634C182.542 48.1678 179.987 48.7414 177.566 48.7414C172.225 48.7414 170.836 46.6759 170.836 42.3882V29.8731C170.836 29.2225 170.836 29.2225 174.604 29.2225V42.6565C174.604 45.1431 175.187 46.0239 177.61 46.0239C178.417 46.0239 179.673 45.871 180.615 45.3353V29.8731C180.615 29.2225 180.661 29.2225 184.249 29.2225V47.3634Z" fill="#2f2f2f"/>
<path d="M191.112 38.0614C192.817 38.1009 195.597 38.025 197.167 37.6422C197.347 36.9538 197.392 36.0734 197.392 35.345C197.347 32.59 196.765 31.5568 194.835 31.5568C192.995 31.5568 191.38 32.8962 191.112 38.0614ZM200.935 35.0007C200.935 36.6855 200.8 38.599 200.443 39.9769C197.347 40.4745 193.221 40.5889 191.066 40.5889C191.247 44.646 192.501 45.7161 195.239 45.7161C197.034 45.7161 198.826 45.259 200.353 44.5305C200.577 45.1057 200.667 46.024 200.667 46.6356C200.667 47.8222 197.84 48.7414 194.476 48.7414C190.305 48.7414 187.3 47.248 187.3 39.7861C187.3 30.2157 191.291 28.8394 195.239 28.8394C199.005 28.8394 200.935 30.8677 200.935 35.0007Z" fill="#2f2f2f"/>
<path d="M203.67 30.5617C205.42 29.5279 207.575 28.8389 209.772 28.8389C212.059 28.8389 212.912 29.4136 212.912 30.4462C212.912 30.8679 212.823 31.6324 212.509 32.2844C211.836 31.9781 211.117 31.8246 210.356 31.8246C209.368 31.8246 208.248 32.093 207.394 32.7056L207.351 47.7462C207.351 48.3582 207.305 48.3582 203.67 48.3582V30.5617Z" fill="#2f2f2f"/>
<path d="M221.435 38.9817C219.641 38.9817 218.115 39.5172 218.115 42.8473C218.115 45.6417 219.281 46.1387 221.031 46.1387C222.018 46.1387 223.004 45.832 223.409 45.4888C223.542 44.2263 223.542 41.3928 223.542 39.327C222.96 39.096 222.062 38.9817 221.435 38.9817ZM214.84 29.873C215.604 29.4517 218.251 28.8392 221.659 28.8392C225.517 28.8392 227.221 30.0643 227.221 33.5092V35.5373C227.221 39.9384 227.176 44.5311 226.952 47.4408C225.741 48.0518 223.633 48.7419 220.717 48.7419C217.442 48.7788 214.302 48.1679 214.302 42.9227C214.302 37.6041 217.263 36.6464 220.268 36.6464C221.254 36.6464 222.648 36.7618 223.542 37.1446V34.1213C223.542 32.3232 222.557 31.8635 220.761 31.8635C218.52 31.8635 216.141 32.2463 214.84 32.7058C214.439 32.0933 214.348 31.4044 214.348 30.9447C214.348 30.524 214.481 30.1017 214.84 29.873Z" fill="#2f2f2f"/>
<path d="M160.817 45.5823C160.522 45.5823 160.246 45.5497 159.986 45.492C158.201 45.0977 157.168 43.3687 156.912 40.3263C156.866 39.8172 156.845 39.2718 156.845 38.6893C156.845 38.3239 156.858 37.9755 156.876 37.6395C156.983 35.7624 157.38 34.346 158.071 33.4334C158.864 32.3819 160.01 31.8713 161.576 31.8713C162.399 31.8713 163.222 31.941 164.029 32.0797V44.5855C163.921 44.6683 163.811 44.7457 163.698 44.8191C162.898 45.3322 161.952 45.5823 160.817 45.5823ZM156.731 54.8694C156.046 54.8892 155.426 54.8836 154.93 54.8346C154.727 55.5163 154.861 56.2016 155.012 56.6447C155.148 57.0503 155.42 57.4246 155.854 57.5646C156.055 57.6149 156.354 57.6545 156.731 57.6742C156.919 57.6851 156.566 57.6727 156.793 57.6742C160.274 57.6248 162.478 56.7148 164.564 54.952C165.24 54.3821 165.796 53.7385 166.259 53.0375C167.271 51.5139 167.792 49.6955 167.792 47.5905V29.7825L167.569 29.7211C165.72 29.2199 163.703 28.9666 161.576 28.9666C158.696 28.9666 156.527 29.7649 155.141 31.3388C153.822 32.8343 153.137 35.1998 153.09 38.3597C153.09 38.4694 153.084 38.575 153.084 38.6893C153.084 40.006 153.197 41.1822 153.412 42.2332C153.917 44.6823 155.002 46.4076 156.666 47.4008C157.789 48.0711 159.171 48.4112 160.817 48.4112C161.913 48.4112 162.992 48.2167 164.029 47.8304V47.9619C164.029 49.8972 163.396 51.4729 162.163 52.6616C162.064 52.7593 161.967 52.8577 161.859 52.9512C160.715 53.9173 159.835 54.5449 157.992 54.7492C157.244 54.8335 157.009 54.8611 156.731 54.8694Z" fill="#2f2f2f"/>
</g>
<rect x="236.128" y="16.3499" width="2.512" height="35.168" fill="#B6B7B9"/>
<path d="M261.425 35.3215C261.425 36.1671 261.226 36.9648 260.827 37.7146C260.428 38.4645 259.79 39.0787 258.913 39.5574C258.035 40.02 256.91 40.2514 255.538 40.2514H252.523V47H249.795V30.3677H255.538C256.815 30.3677 257.892 30.5911 258.769 31.0378C259.663 31.4686 260.325 32.0589 260.755 32.8087C261.202 33.5586 261.425 34.3962 261.425 35.3215ZM255.538 38.0257C256.575 38.0257 257.349 37.7944 257.86 37.3317C258.37 36.8531 258.626 36.183 258.626 35.3215C258.626 33.5027 257.596 32.5933 255.538 32.5933H252.523V38.0257H255.538ZM269.747 47.2154C268.503 47.2154 267.378 46.9362 266.373 46.3778C265.368 45.8034 264.578 45.0057 264.004 43.9847C263.429 42.9476 263.142 41.7511 263.142 40.3949C263.142 39.0548 263.437 37.8662 264.027 36.8292C264.618 35.7922 265.423 34.9944 266.445 34.436C267.466 33.8776 268.606 33.5984 269.867 33.5984C271.127 33.5984 272.268 33.8776 273.289 34.436C274.31 34.9944 275.116 35.7922 275.706 36.8292C276.296 37.8662 276.591 39.0548 276.591 40.3949C276.591 41.7351 276.288 42.9237 275.682 43.9607C275.076 44.9977 274.246 45.8034 273.193 46.3778C272.156 46.9362 271.007 47.2154 269.747 47.2154ZM269.747 44.8462C270.449 44.8462 271.103 44.6787 271.709 44.3436C272.332 44.0086 272.834 43.506 273.217 42.8359C273.6 42.1659 273.791 41.3522 273.791 40.3949C273.791 39.4377 273.608 38.632 273.241 37.9779C272.874 37.3078 272.387 36.8052 271.781 36.4702C271.175 36.1352 270.521 35.9676 269.819 35.9676C269.117 35.9676 268.463 36.1352 267.856 36.4702C267.266 36.8052 266.796 37.3078 266.445 37.9779C266.094 38.632 265.918 39.4377 265.918 40.3949C265.918 41.8149 266.277 42.9157 266.995 43.6975C267.729 44.4633 268.646 44.8462 269.747 44.8462ZM282.017 35.7283C282.415 35.0583 282.942 34.5397 283.596 34.1728C284.266 33.7899 285.056 33.5984 285.965 33.5984V36.4223H285.271C284.202 36.4223 283.389 36.6936 282.83 37.236C282.288 37.7785 282.017 38.7198 282.017 40.0599V47H279.288V33.8138H282.017V35.7283ZM291.656 36.0394V43.3385C291.656 43.8331 291.768 44.1921 291.991 44.4154C292.23 44.6228 292.629 44.7265 293.187 44.7265H294.863V47H292.709C291.48 47 290.539 46.7128 289.885 46.1385C289.231 45.5641 288.904 44.6308 288.904 43.3385V36.0394H287.348V33.8138H288.904V30.5352H291.656V33.8138H294.863V36.0394H291.656ZM296.468 40.3471C296.468 39.0229 296.739 37.8502 297.281 36.8292C297.84 35.8081 298.59 35.0184 299.531 34.46C300.488 33.8856 301.541 33.5984 302.69 33.5984C303.727 33.5984 304.628 33.8058 305.394 34.2207C306.176 34.6195 306.798 35.1221 307.261 35.7283V33.8138H310.013V47H307.261V45.0376C306.798 45.6598 306.168 46.1784 305.37 46.5932C304.572 47.008 303.663 47.2154 302.642 47.2154C301.509 47.2154 300.472 46.9282 299.531 46.3539C298.59 45.7635 297.84 44.9499 297.281 43.9129C296.739 42.8599 296.468 41.6713 296.468 40.3471ZM307.261 40.3949C307.261 39.4856 307.069 38.6958 306.686 38.0257C306.319 37.3557 305.833 36.8451 305.227 36.4941C304.62 36.1431 303.966 35.9676 303.264 35.9676C302.562 35.9676 301.908 36.1431 301.302 36.4941C300.696 36.8292 300.201 37.3317 299.818 38.0018C299.451 38.6559 299.268 39.4377 299.268 40.3471C299.268 41.2565 299.451 42.0542 299.818 42.7402C300.201 43.4263 300.696 43.9527 301.302 44.3197C301.924 44.6707 302.578 44.8462 303.264 44.8462C303.966 44.8462 304.62 44.6707 305.227 44.3197C305.833 43.9687 306.319 43.4582 306.686 42.7881C307.069 42.1021 307.261 41.3043 307.261 40.3949ZM316.324 29.2908V47H313.596V29.2908H316.324ZM325.213 40.3471C325.213 39.0229 325.485 37.8502 326.027 36.8292C326.585 35.8081 327.335 35.0184 328.277 34.46C329.234 33.8856 330.295 33.5984 331.459 33.5984C332.321 33.5984 333.167 33.7899 333.996 34.1728C334.842 34.5397 335.512 35.0343 336.006 35.6565V29.2908H338.759V47H336.006V45.0137C335.56 45.6519 334.937 46.1784 334.14 46.5932C333.358 47.008 332.457 47.2154 331.436 47.2154C330.287 47.2154 329.234 46.9282 328.277 46.3539C327.335 45.7635 326.585 44.9499 326.027 43.9129C325.485 42.8599 325.213 41.6713 325.213 40.3471ZM336.006 40.3949C336.006 39.4856 335.815 38.6958 335.432 38.0257C335.065 37.3557 334.579 36.8451 333.972 36.4941C333.366 36.1431 332.712 35.9676 332.01 35.9676C331.308 35.9676 330.654 36.1431 330.048 36.4941C329.441 36.8292 328.947 37.3317 328.564 38.0018C328.197 38.6559 328.013 39.4377 328.013 40.3471C328.013 41.2565 328.197 42.0542 328.564 42.7402C328.947 43.4263 329.441 43.9527 330.048 44.3197C330.67 44.6707 331.324 44.8462 332.01 44.8462C332.712 44.8462 333.366 44.6707 333.972 44.3197C334.579 43.9687 335.065 43.4582 335.432 42.7881C335.815 42.1021 336.006 41.3043 336.006 40.3949ZM354.427 40.0838C354.427 40.5784 354.395 41.0251 354.331 41.424H344.256C344.336 42.477 344.727 43.3225 345.429 43.9607C346.131 44.5989 346.993 44.918 348.014 44.918C349.481 44.918 350.518 44.3037 351.125 43.0753H354.068C353.669 44.2878 352.943 45.2849 351.89 46.0667C350.853 46.8325 349.561 47.2154 348.014 47.2154C346.753 47.2154 345.62 46.9362 344.615 46.3778C343.626 45.8034 342.844 45.0057 342.27 43.9847C341.712 42.9476 341.432 41.7511 341.432 40.3949C341.432 39.0388 341.704 37.8502 342.246 36.8292C342.805 35.7922 343.578 34.9944 344.567 34.436C345.573 33.8776 346.721 33.5984 348.014 33.5984C349.258 33.5984 350.367 33.8697 351.34 34.4121C352.313 34.9546 353.071 35.7204 353.614 36.7095C354.156 37.6827 354.427 38.8075 354.427 40.0838ZM351.579 39.2223C351.563 38.2172 351.204 37.4115 350.502 36.8052C349.8 36.199 348.931 35.8959 347.894 35.8959C346.953 35.8959 346.147 36.199 345.477 36.8052C344.807 37.3956 344.408 38.2012 344.28 39.2223H351.579ZM371.968 47L368.139 40.3471H366.057V47H363.329V30.3677H369.072C370.348 30.3677 371.425 30.5911 372.303 31.0378C373.196 31.4845 373.858 32.0828 374.289 32.8326C374.736 33.5825 374.959 34.4201 374.959 35.3454C374.959 36.4303 374.64 37.4195 374.002 38.3129C373.38 39.1904 372.414 39.7887 371.106 40.1078L375.222 47H371.968ZM366.057 38.1693H369.072C370.093 38.1693 370.859 37.9141 371.369 37.4035C371.896 36.893 372.159 36.207 372.159 35.3454C372.159 34.4839 371.904 33.8138 371.393 33.3352C370.883 32.8406 370.109 32.5933 369.072 32.5933H366.057V38.1693ZM390.535 40.0838C390.535 40.5784 390.503 41.0251 390.439 41.424H380.364C380.444 42.477 380.834 43.3225 381.536 43.9607C382.238 44.5989 383.1 44.918 384.121 44.918C385.589 44.918 386.626 44.3037 387.232 43.0753H390.176C389.777 44.2878 389.051 45.2849 387.998 46.0667C386.961 46.8325 385.669 47.2154 384.121 47.2154C382.861 47.2154 381.728 46.9362 380.723 46.3778C379.734 45.8034 378.952 45.0057 378.377 43.9847C377.819 42.9476 377.54 41.7511 377.54 40.3949C377.54 39.0388 377.811 37.8502 378.353 36.8292C378.912 35.7922 379.686 34.9944 380.675 34.436C381.68 33.8776 382.829 33.5984 384.121 33.5984C385.365 33.5984 386.474 33.8697 387.447 34.4121C388.421 34.9546 389.178 35.7204 389.721 36.7095C390.263 37.6827 390.535 38.8075 390.535 40.0838ZM387.687 39.2223C387.671 38.2172 387.312 37.4115 386.61 36.8052C385.908 36.199 385.038 35.8959 384.001 35.8959C383.06 35.8959 382.254 36.199 381.584 36.8052C380.914 37.3956 380.515 38.2012 380.388 39.2223H387.687ZM398.006 47.2154C396.969 47.2154 396.035 47.0319 395.206 46.665C394.392 46.2821 393.746 45.7715 393.267 45.1334C392.789 44.4792 392.533 43.7533 392.501 42.9556H395.325C395.373 43.514 395.636 43.9846 396.115 44.3676C396.61 44.7345 397.224 44.918 397.958 44.918C398.724 44.918 399.314 44.7744 399.729 44.4872C400.159 44.1841 400.375 43.8012 400.375 43.3385C400.375 42.8439 400.136 42.477 399.657 42.2377C399.194 41.9983 398.452 41.7351 397.431 41.4479C396.442 41.1767 395.636 40.9135 395.014 40.6582C394.392 40.4029 393.85 40.012 393.387 39.4856C392.94 38.9591 392.717 38.2651 392.717 37.4035C392.717 36.7015 392.924 36.0634 393.339 35.489C393.754 34.8987 394.344 34.436 395.11 34.101C395.892 33.766 396.785 33.5984 397.79 33.5984C399.29 33.5984 400.494 33.9813 401.404 34.7471C402.329 35.497 402.824 36.526 402.888 37.8343H400.159C400.112 37.244 399.872 36.7733 399.442 36.4223C399.011 36.0714 398.428 35.8959 397.695 35.8959C396.977 35.8959 396.426 36.0315 396.043 36.3027C395.66 36.5739 395.469 36.9329 395.469 37.3796C395.469 37.7306 395.597 38.0257 395.852 38.2651C396.107 38.5044 396.418 38.6958 396.785 38.8394C397.152 38.967 397.695 39.1346 398.412 39.342C399.37 39.5972 400.151 39.8605 400.758 40.1317C401.38 40.387 401.914 40.7699 402.361 41.2804C402.808 41.7909 403.039 42.469 403.055 43.3146C403.055 44.0644 402.848 44.7345 402.433 45.3248C402.018 45.9151 401.428 46.3778 400.662 46.7128C399.912 47.0479 399.027 47.2154 398.006 47.2154ZM418.088 40.0838C418.088 40.5784 418.056 41.0251 417.993 41.424H407.918C407.997 42.477 408.388 43.3225 409.09 43.9607C409.792 44.5989 410.654 44.918 411.675 44.918C413.143 44.918 414.18 44.3037 414.786 43.0753H417.729C417.331 44.2878 416.605 45.2849 415.552 46.0667C414.515 46.8325 413.222 47.2154 411.675 47.2154C410.414 47.2154 409.282 46.9362 408.276 46.3778C407.287 45.8034 406.506 45.0057 405.931 43.9847C405.373 42.9476 405.094 41.7511 405.094 40.3949C405.094 39.0388 405.365 37.8502 405.907 36.8292C406.466 35.7922 407.239 34.9944 408.229 34.436C409.234 33.8776 410.382 33.5984 411.675 33.5984C412.919 33.5984 414.028 33.8697 415.001 34.4121C415.974 34.9546 416.732 35.7204 417.275 36.7095C417.817 37.6827 418.088 38.8075 418.088 40.0838ZM415.24 39.2223C415.225 38.2172 414.866 37.4115 414.164 36.8052C413.462 36.199 412.592 35.8959 411.555 35.8959C410.614 35.8959 409.808 36.199 409.138 36.8052C408.468 37.3956 408.069 38.2012 407.941 39.2223H415.24ZM423.501 35.7283C423.9 35.0583 424.427 34.5397 425.081 34.1728C425.751 33.7899 426.541 33.5984 427.45 33.5984V36.4223H426.756C425.687 36.4223 424.873 36.6936 424.315 37.236C423.773 37.7785 423.501 38.7198 423.501 40.0599V47H420.773V33.8138H423.501V35.7283ZM435.055 44.559L438.788 33.8138H441.684L436.658 47H433.404L428.402 33.8138H431.322L435.055 44.559ZM442.837 40.3471C442.837 39.0229 443.108 37.8502 443.651 36.8292C444.209 35.8081 444.959 35.0184 445.9 34.46C446.857 33.8856 447.91 33.5984 449.059 33.5984C450.096 33.5984 450.997 33.8058 451.763 34.2207C452.545 34.6195 453.167 35.1221 453.63 35.7283V33.8138H456.382V47H453.63V45.0376C453.167 45.6598 452.537 46.1784 451.739 46.5932C450.942 47.008 450.032 47.2154 449.011 47.2154C447.878 47.2154 446.841 46.9282 445.9 46.3539C444.959 45.7635 444.209 44.9499 443.651 43.9129C443.108 42.8599 442.837 41.6713 442.837 40.3471ZM453.63 40.3949C453.63 39.4856 453.438 38.6958 453.056 38.0257C452.689 37.3557 452.202 36.8451 451.596 36.4941C450.99 36.1431 450.335 35.9676 449.633 35.9676C448.931 35.9676 448.277 36.1431 447.671 36.4941C447.065 36.8292 446.57 37.3317 446.187 38.0018C445.82 38.6559 445.637 39.4377 445.637 40.3471C445.637 41.2565 445.82 42.0542 446.187 42.7402C446.57 43.4263 447.065 43.9527 447.671 44.3197C448.293 44.6707 448.947 44.8462 449.633 44.8462C450.335 44.8462 450.99 44.6707 451.596 44.3197C452.202 43.9687 452.689 43.4582 453.056 42.7881C453.438 42.1021 453.63 41.3043 453.63 40.3949ZM464.752 47.2154C463.715 47.2154 462.781 47.0319 461.952 46.665C461.138 46.2821 460.492 45.7715 460.013 45.1334C459.535 44.4792 459.279 43.7533 459.247 42.9556H462.071C462.119 43.514 462.382 43.9846 462.861 44.3676C463.356 44.7345 463.97 44.918 464.704 44.918C465.47 44.918 466.06 44.7744 466.475 44.4872C466.905 44.1841 467.121 43.8012 467.121 43.3385C467.121 42.8439 466.882 42.477 466.403 42.2377C465.94 41.9983 465.198 41.7351 464.177 41.4479C463.188 41.1767 462.382 40.9135 461.76 40.6582C461.138 40.4029 460.596 40.012 460.133 39.4856C459.686 38.9591 459.463 38.2651 459.463 37.4035C459.463 36.7015 459.67 36.0634 460.085 35.489C460.5 34.8987 461.09 34.436 461.856 34.101C462.638 33.766 463.531 33.5984 464.536 33.5984C466.036 33.5984 467.241 33.9813 468.15 34.7471C469.075 35.497 469.57 36.526 469.634 37.8343H466.905C466.858 37.244 466.618 36.7733 466.188 36.4223C465.757 36.0714 465.174 35.8959 464.441 35.8959C463.723 35.8959 463.172 36.0315 462.789 36.3027C462.406 36.5739 462.215 36.9329 462.215 37.3796C462.215 37.7306 462.343 38.0257 462.598 38.2651C462.853 38.5044 463.164 38.6958 463.531 38.8394C463.898 38.967 464.441 39.1346 465.158 39.342C466.116 39.5972 466.897 39.8605 467.504 40.1317C468.126 40.387 468.66 40.7699 469.107 41.2804C469.554 41.7909 469.785 42.469 469.801 43.3146C469.801 44.0644 469.594 44.7345 469.179 45.3248C468.764 45.9151 468.174 46.3778 467.408 46.7128C466.658 47.0479 465.773 47.2154 464.752 47.2154Z" fill="#B6B7B9"/>
</g>
</svg>
