<svg width="174" height="38" viewBox="0 0 174 38" fill="none" xmlns="http://www.w3.org/2000/svg">
<path d="M11.5661 22.7176C8.18585 23.9914 6.61943 24.8871 6.61943 24.8871C6.23995 25.0807 5.76047 25.5403 5.55563 25.9094L2.9709 30.5426C2.76562 30.9106 2.93185 31.1062 3.33992 30.978C3.33992 30.978 4.37744 30.6494 5.38421 30.3591C7.82988 29.6501 12.35 28.5999 12.35 28.5999C12.7674 28.5033 13.2767 28.123 13.482 27.7547L17.0417 21.3737C17.2465 21.0046 17.0819 20.8115 16.6746 20.943C16.6746 20.943 14.1404 21.7463 11.5661 22.7176Z" fill="#e31b22"/>
<path d="M34.5262 25.4638C34.9534 25.4291 35.1348 25.0998 34.9295 24.7322L31.5213 18.6226C31.3156 18.2539 30.8007 18.0032 30.3766 18.066L23.5482 19.2062C23.1278 19.2884 22.9524 19.6562 23.1573 20.0242L26.2314 25.5363C26.4372 25.905 26.9537 26.1729 27.381 26.1346L34.5262 25.4638Z" fill="#e31b22"/>
<path d="M29.8906 15.6992L26.4693 9.56459C26.264 9.19584 25.7654 9.01263 25.3629 9.15571C20.6947 10.4923 16.0768 12.5518 13.8828 13.9849C12.6683 14.7786 11.6121 15.638 11.6121 15.638C11.2829 15.9066 10.8452 16.4268 10.6395 16.7956L7.76586 21.9473C7.56102 22.3143 7.71001 22.4714 8.09904 22.2938C8.09904 22.2938 8.84557 21.9539 9.68137 21.6081C12.5185 20.4317 15.6226 19.3993 18.9091 18.5422C18.9717 18.5265 19.035 18.5102 19.0972 18.4942C22.733 17.5689 29.4948 16.4908 29.4948 16.4908C29.9177 16.4238 30.0963 16.0679 29.8906 15.6992Z" fill="#e31b22"/>
<path d="M13.6911 12.1382C13.6911 12.1382 16.9319 10.256 19.1291 9.35561C21.0614 8.56333 24.4959 7.58265 24.4959 7.58265C24.9076 7.46494 25.0758 7.06777 24.8713 6.69938L21.6892 0.995932C21.0319 -0.0475126 20.0172 -0.00619565 19.3882 1.12105L19.3802 1.12686L13.3941 11.8584C13.1888 12.2263 13.3227 12.3526 13.6911 12.1382Z" fill="#e31b22"/>
<path d="M40.2553 34.2805L36.5837 27.6989C36.3784 27.3309 35.9695 27.0445 35.6765 27.0608L35.405 27.0799C21.8081 27.999 11.8778 30.2366 5.9414 31.9505C4.18095 32.4587 2.11235 33.1553 2.11235 33.1553C1.707 33.2913 1.41883 33.3677 1.00114 34.0716C1.00114 34.0716 0.970043 34.1285 0.892325 34.2696L0.894319 34.275C0.379357 35.3723 0.968453 36.2427 2.26938 36.2427L2.33435 36.25H38.8794C40.1811 36.25 40.7694 35.377 40.2553 34.2805Z" fill="#e31b22"/>
<path d="M51.8025 22.0462H56.7313L55.517 17.7202C54.9457 15.7086 54.4454 13.3322 54.2668 11.8695C54.0525 13.3322 53.5529 15.6793 53.017 17.7202L51.8025 22.0462ZM57.3382 24.3013H51.1951L49.8024 29.2996C49.6953 29.6353 49.5887 29.7869 48.4447 29.7869C48.0527 29.7869 47.3024 29.7563 46.6232 29.6966L52.9815 8.73141C53.0527 8.42709 53.4459 8.30457 54.0883 8.30457C54.5878 8.30457 55.0878 8.33558 55.4455 8.39599L61.8387 29.2681C61.9094 29.6047 61.7308 29.7869 60.5889 29.7869C60.16 29.7869 59.5886 29.7869 58.8743 29.726L57.3382 24.3013Z" fill="#2f2f2f"/>
<path d="M63.3025 15.2219C64.6961 14.7032 67.0535 14.1853 68.9458 14.1853C72.695 14.1853 73.9807 15.313 73.9807 18.2674V29.238C73.9807 29.7262 73.9101 29.7262 70.9818 29.7262V18.999C70.9818 17.0804 70.6239 16.3493 68.8387 16.3493C68.0881 16.3493 66.9811 16.5314 66.1954 16.8978V29.238C66.1954 29.7262 66.1239 29.7262 63.3025 29.7262V15.2219Z" fill="#2f2f2f"/>
<path d="M76.5878 8.45708C76.5878 7.32849 77.0878 7.32849 79.4807 7.32849V15.3726C80.5884 14.5508 82.1236 14.1861 83.4813 14.1861C86.5525 14.1861 87.1959 15.648 87.1959 18.2073V29.2385C87.1959 29.7257 87.0529 29.7257 84.1952 29.7257V18.9086C84.1952 17.5681 83.9093 16.471 82.1596 16.471C81.3742 16.471 80.3384 16.6838 79.4807 17.3247V29.2385C79.4807 29.7257 79.4452 29.7257 76.5878 29.7257V8.45708Z" fill="#2f2f2f"/>
<path d="M94.9088 22.2605C93.4815 22.2605 92.266 22.6869 92.266 25.3382C92.266 27.563 93.1946 27.9588 94.5888 27.9588C95.3735 27.9588 96.1591 27.7146 96.4808 27.4413C96.5881 26.4361 96.5881 24.1802 96.5881 22.5354C96.1233 22.3515 95.4092 22.2605 94.9088 22.2605ZM89.6582 15.0083C90.2668 14.6729 92.3733 14.1853 95.0884 14.1853C98.1583 14.1853 99.5159 15.1607 99.5159 17.9034V19.5181C99.5159 23.0222 99.4801 26.6788 99.3023 28.9955C98.338 29.4819 96.6587 30.0314 94.3377 30.0314C91.7307 30.0607 89.231 29.5744 89.231 25.3983C89.231 21.1637 91.5868 20.4012 93.9811 20.4012C94.7658 20.4012 95.874 20.4931 96.5881 20.7978V18.3908C96.5881 16.9591 95.8025 16.5932 94.3734 16.5932C92.5878 16.5932 90.6949 16.8979 89.6582 17.2638C89.3382 16.7761 89.2667 16.2276 89.2667 15.8617C89.2667 15.5267 89.374 15.1905 89.6582 15.0083Z" fill="#2f2f2f"/>
<path d="M102.088 15.2219C103.481 14.7032 105.838 14.1853 107.731 14.1853C111.48 14.1853 112.765 15.313 112.765 18.2674V29.238C112.765 29.7262 112.694 29.7262 109.766 29.7262V18.999C109.766 17.0804 109.409 16.3493 107.623 16.3493C106.872 16.3493 105.767 16.5314 104.981 16.8978V29.238C104.981 29.7262 104.909 29.7262 102.088 29.7262V15.2219Z" fill="#2f2f2f"/>
<path d="M139.695 28.9339C138.336 29.5743 136.301 30.031 134.374 30.031C130.122 30.031 129.016 28.3865 129.016 24.9727V15.0085C129.016 14.4905 129.016 14.4905 132.016 14.4905V25.1863C132.016 27.1661 132.48 27.8674 134.409 27.8674C135.052 27.8674 136.052 27.7457 136.802 27.3192V15.0085C136.802 14.4905 136.838 14.4905 139.695 14.4905V28.9339Z" fill="#2f2f2f"/>
<path d="M145.159 21.5279C146.517 21.5594 148.73 21.4989 149.98 21.1942C150.124 20.6461 150.159 19.9451 150.159 19.3652C150.124 17.1717 149.66 16.3492 148.124 16.3492C146.659 16.3492 145.373 17.4155 145.159 21.5279ZM152.98 19.0911C152.98 20.4325 152.873 21.956 152.589 23.053C150.124 23.4492 146.838 23.5403 145.122 23.5403C145.267 26.7705 146.265 27.6224 148.445 27.6224C149.874 27.6224 151.301 27.2585 152.517 26.6785C152.695 27.1364 152.766 27.8676 152.766 28.3545C152.766 29.2992 150.516 30.0311 147.838 30.0311C144.516 30.0311 142.124 28.8421 142.124 22.9011C142.124 15.2813 145.302 14.1855 148.445 14.1855C151.444 14.1855 152.98 15.8005 152.98 19.0911Z" fill="#2f2f2f"/>
<path d="M155.158 15.5567C156.551 14.7336 158.266 14.1851 160.016 14.1851C161.837 14.1851 162.516 14.6426 162.516 15.4648C162.516 15.8005 162.445 16.4092 162.195 16.9283C161.659 16.6844 161.087 16.5623 160.481 16.5623C159.694 16.5623 158.803 16.776 158.122 17.2637L158.088 29.2387C158.088 29.726 158.052 29.726 155.158 29.726V15.5567Z" fill="#2f2f2f"/>
<path d="M169.302 22.2605C167.874 22.2605 166.658 22.6869 166.658 25.3382C166.658 27.563 167.587 27.9588 168.98 27.9588C169.766 27.9588 170.551 27.7146 170.873 27.4413C170.979 26.4361 170.979 24.1802 170.979 22.5354C170.516 22.3515 169.801 22.2605 169.302 22.2605ZM164.051 15.0083C164.659 14.6729 166.766 14.1853 169.48 14.1853C172.552 14.1853 173.908 15.1607 173.908 17.9034V19.5181C173.908 23.0222 173.872 26.6788 173.695 28.9955C172.73 29.4819 171.052 30.0314 168.73 30.0314C166.123 30.0607 163.622 29.5744 163.622 25.3983C163.622 21.1637 165.98 20.4012 168.372 20.4012C169.158 20.4012 170.267 20.4931 170.979 20.7978V18.3908C170.979 16.9591 170.195 16.5932 168.765 16.5932C166.981 16.5932 165.087 16.8979 164.051 17.2638C163.731 16.7761 163.659 16.2276 163.659 15.8617C163.659 15.5267 163.765 15.1905 164.051 15.0083Z" fill="#2f2f2f"/>
<path d="M121.039 27.5159C120.804 27.5159 120.584 27.4898 120.377 27.4439C118.956 27.13 118.134 25.7534 117.93 23.3311C117.893 22.9258 117.876 22.4915 117.876 22.0278C117.876 21.7369 117.887 21.4595 117.901 21.192C117.986 19.6974 118.303 18.5697 118.852 17.8431C119.484 17.006 120.397 16.5994 121.643 16.5994C122.299 16.5994 122.954 16.6549 123.596 16.7654V26.7222C123.51 26.7881 123.423 26.8498 123.333 26.9082C122.696 27.3167 121.943 27.5159 121.039 27.5159ZM117.786 34.91C117.24 34.9258 116.747 34.9213 116.352 34.8823C116.19 35.4251 116.297 35.9707 116.417 36.3235C116.525 36.6465 116.742 36.9444 117.087 37.0559C117.247 37.0959 117.486 37.1275 117.786 37.1432C117.935 37.1518 117.655 37.1419 117.835 37.1432C120.607 37.1039 122.361 36.3793 124.023 34.9758C124.561 34.5221 125.003 34.0096 125.372 33.4515C126.177 32.2384 126.592 30.7907 126.592 29.1147V14.9364L126.415 14.8875C124.943 14.4885 123.337 14.2867 121.643 14.2867C119.35 14.2867 117.623 14.9224 116.52 16.1754C115.47 17.3661 114.924 19.2495 114.887 21.7654C114.887 21.8527 114.882 21.9368 114.882 22.0278C114.882 23.0761 114.972 24.0126 115.143 24.8493C115.546 26.7993 116.409 28.1729 117.734 28.9637C118.628 29.4974 119.728 29.7681 121.039 29.7681C121.912 29.7681 122.77 29.6133 123.596 29.3057V29.4104C123.596 30.9513 123.092 32.2058 122.111 33.1522C122.032 33.23 121.954 33.3083 121.869 33.3828C120.958 34.152 120.257 34.6517 118.79 34.8143C118.195 34.8814 118.007 34.9034 117.786 34.91Z" fill="#2f2f2f"/>
</svg>
