<svg width="207" height="61" viewBox="0 0 207 61" fill="none" xmlns="http://www.w3.org/2000/svg">
<path d="M20.7739 35.2191C16.9917 36.6444 15.239 37.6466 15.239 37.6466C14.8144 37.8633 14.2779 38.3775 14.0487 38.7905L11.1566 43.9747C10.9269 44.3864 11.1129 44.6053 11.5695 44.4619C11.5695 44.4619 12.7304 44.0942 13.8569 43.7693C16.5934 42.976 21.6511 41.801 21.6511 41.801C22.1181 41.6929 22.688 41.2673 22.9177 40.8552L26.9007 33.7154C27.1298 33.3024 26.9457 33.0864 26.4899 33.2335C26.4899 33.2335 23.6544 34.1323 20.7739 35.2191Z" fill="#e31b22"/>
<path d="M46.4644 38.2919C46.9424 38.2531 47.1454 37.8846 46.9157 37.4733L43.1022 30.6371C42.8721 30.2246 42.2959 29.9441 41.8214 30.0144L34.181 31.2901C33.7106 31.3821 33.5143 31.7937 33.7436 32.2054L37.1833 38.373C37.4135 38.7856 37.9914 39.0853 38.4695 39.0425L46.4644 38.2919Z" fill="#e31b22"/>
<path d="M41.2776 27.366L37.4494 20.5019C37.2197 20.0893 36.6618 19.8843 36.2114 20.0444C30.9881 21.5399 25.8211 23.8443 23.3661 25.4479C22.0072 26.3359 20.8254 27.2975 20.8254 27.2975C20.4571 27.5981 19.9673 28.1802 19.7372 28.5928L16.5218 34.3571C16.2926 34.7678 16.4593 34.9436 16.8946 34.7448C16.8946 34.7448 17.7299 34.3645 18.6651 33.9776C21.8396 32.6613 25.3128 31.5061 28.9902 30.5471C29.0602 30.5296 29.1311 30.5113 29.2007 30.4934C33.2688 29.4581 40.8347 28.2518 40.8347 28.2518C41.3079 28.1768 41.5077 27.7786 41.2776 27.366Z" fill="#e31b22"/>
<path d="M23.1517 23.3816C23.1517 23.3816 26.7779 21.2756 29.2364 20.2681C31.3985 19.3816 35.2414 18.2843 35.2414 18.2843C35.7021 18.1526 35.8903 17.7082 35.6615 17.296L32.1009 10.9143C31.3655 9.74677 30.2301 9.793 29.5263 11.0543L29.5174 11.0608L22.8194 23.0685C22.5897 23.4802 22.7395 23.6215 23.1517 23.3816Z" fill="#e31b22"/>
<path d="M52.8749 48.157L48.7666 40.7927C48.5369 40.381 48.0794 40.0605 47.7516 40.0788L47.4478 40.1001C32.234 41.1285 21.1227 43.6322 14.4804 45.5499C12.5106 46.1186 10.196 46.898 10.196 46.898C9.74245 47.0502 9.42001 47.1356 8.95264 47.9233C8.95264 47.9233 8.91785 47.9869 8.83089 48.1448L8.83312 48.1509C8.25692 49.3786 8.91607 50.3525 10.3717 50.3525L10.4444 50.3607H51.3353C52.7919 50.3607 53.4501 49.3839 52.8749 48.157Z" fill="#e31b22"/>
<path d="M61.7476 30.0022H67.2626L65.9039 25.1617C65.2646 22.9109 64.7048 20.2519 64.505 18.6153C64.2652 20.2519 63.7062 22.8781 63.1066 25.1617L61.7476 30.0022ZM67.9417 32.5254H61.068L59.5097 38.1181C59.3899 38.4938 59.2706 38.6634 57.9906 38.6634C57.5519 38.6634 56.7124 38.6291 55.9524 38.5623L63.0669 15.104C63.1465 14.7635 63.5865 14.6264 64.3053 14.6264C64.8642 14.6264 65.4236 14.6611 65.8239 14.7287L72.9773 38.0829C73.0564 38.4595 72.8566 38.6634 71.5789 38.6634C71.099 38.6634 70.4597 38.6634 69.6604 38.5953L67.9417 32.5254Z" fill="#4F4C4D"/>
<path d="M74.6152 22.3664C76.1745 21.786 78.8123 21.2065 80.9296 21.2065C85.1247 21.2065 86.5633 22.4683 86.5633 25.774V38.0493C86.5633 38.5955 86.4843 38.5955 83.2077 38.5955V26.5926C83.2077 24.4459 82.8073 23.6278 80.8098 23.6278C79.9699 23.6278 78.7313 23.8316 77.8521 24.2416V38.0493C77.8521 38.5955 77.7721 38.5955 74.6152 38.5955V22.3664Z" fill="#4F4C4D"/>
<path d="M89.4804 14.7971C89.4804 13.5343 90.0398 13.5343 92.7173 13.5343V22.535C93.9567 21.6155 95.6745 21.2074 97.1936 21.2074C100.63 21.2074 101.35 22.8431 101.35 25.7068V38.0498C101.35 38.595 101.19 38.595 97.9924 38.595V26.4915C97.9924 24.9916 97.6725 23.764 95.7148 23.764C94.836 23.764 93.677 24.0021 92.7173 24.7192V38.0498C92.7173 38.595 92.6776 38.595 89.4804 38.595V14.7971Z" fill="#4F4C4D"/>
<path d="M109.98 30.242C108.383 30.242 107.023 30.7191 107.023 33.6857C107.023 36.1751 108.062 36.6179 109.622 36.6179C110.5 36.6179 111.379 36.3447 111.739 36.0389C111.859 34.9142 111.859 32.39 111.859 30.5496C111.339 30.3438 110.54 30.242 109.98 30.242ZM104.105 22.1274C104.786 21.7521 107.143 21.2065 110.181 21.2065C113.616 21.2065 115.135 22.2979 115.135 25.3668V27.1735C115.135 31.0943 115.095 35.1857 114.896 37.7779C113.817 38.3222 111.938 38.937 109.341 38.937C106.424 38.9698 103.627 38.4256 103.627 33.7529C103.627 29.0148 106.263 28.1616 108.942 28.1616C109.82 28.1616 111.06 28.2644 111.859 28.6054V25.9121C111.859 24.3102 110.98 23.9007 109.381 23.9007C107.383 23.9007 105.265 24.2417 104.105 24.6511C103.747 24.1054 103.667 23.4917 103.667 23.0822C103.667 22.7074 103.787 22.3312 104.105 22.1274Z" fill="#4F4C4D"/>
<path d="M118.013 22.3664C119.572 21.786 122.209 21.2065 124.327 21.2065C128.522 21.2065 129.96 22.4683 129.96 25.774V38.0493C129.96 38.5955 129.88 38.5955 126.604 38.5955V26.5926C126.604 24.4459 126.205 23.6278 124.206 23.6278C123.366 23.6278 122.129 23.8316 121.25 24.2416V38.0493C121.25 38.5955 121.17 38.5955 118.013 38.5955V22.3664Z" fill="#4F4C4D"/>
<path d="M160.092 37.7089C158.572 38.4255 156.295 38.9365 154.139 38.9365C149.381 38.9365 148.143 37.0964 148.143 33.2767V22.1275C148.143 21.5479 148.143 21.5479 151.5 21.5479V33.5157C151.5 35.7309 152.019 36.5156 154.178 36.5156C154.897 36.5156 156.016 36.3794 156.855 35.9022V22.1275C156.855 21.5479 156.896 21.5479 160.092 21.5479V37.7089Z" fill="#4F4C4D"/>
<path d="M166.206 29.4222C167.725 29.4574 170.202 29.3898 171.6 29.0488C171.761 28.4355 171.801 27.6512 171.801 27.0023C171.761 24.548 171.242 23.6276 169.523 23.6276C167.884 23.6276 166.445 24.8208 166.206 29.4222ZM174.957 26.6956C174.957 28.1965 174.837 29.9012 174.519 31.1287C171.761 31.572 168.085 31.6739 166.165 31.6739C166.327 35.2882 167.444 36.2415 169.883 36.2415C171.482 36.2415 173.078 35.8343 174.439 35.1853C174.638 35.6977 174.718 36.5158 174.718 37.0606C174.718 38.1177 172.2 38.9366 169.203 38.9366C165.487 38.9366 162.81 37.6062 162.81 30.9587C162.81 22.4328 166.366 21.2067 169.883 21.2067C173.238 21.2067 174.957 23.0137 174.957 26.6956Z" fill="#4F4C4D"/>
<path d="M177.394 22.741C178.953 21.82 180.872 21.2062 182.83 21.2062C184.867 21.2062 185.627 21.7182 185.627 22.6381C185.627 23.0138 185.548 23.6948 185.268 24.2757C184.668 24.0028 184.028 23.8661 183.35 23.8661C182.47 23.8661 181.472 24.1052 180.711 24.6509L180.673 38.05C180.673 38.5952 180.632 38.5952 177.394 38.5952V22.741Z" fill="#4F4C4D"/>
<path d="M193.22 30.242C191.622 30.242 190.262 30.7191 190.262 33.6857C190.262 36.1751 191.301 36.6179 192.86 36.6179C193.739 36.6179 194.618 36.3447 194.978 36.0389C195.097 34.9142 195.097 32.39 195.097 30.5496C194.578 30.3438 193.778 30.242 193.22 30.242ZM187.345 22.1274C188.025 21.7521 190.383 21.2065 193.419 21.2065C196.856 21.2065 198.374 22.2979 198.374 25.3668V27.1735C198.374 31.0943 198.334 35.1857 198.135 37.7779C197.056 38.3222 195.178 38.937 192.58 38.937C189.663 38.9698 186.865 38.4256 186.865 33.7529C186.865 29.0148 189.503 28.1616 192.18 28.1616C193.059 28.1616 194.3 28.2644 195.097 28.6054V25.9121C195.097 24.3102 194.219 23.9007 192.619 23.9007C190.623 23.9007 188.504 24.2417 187.345 24.6511C186.987 24.1054 186.906 23.4917 186.906 23.0822C186.906 22.7074 187.025 22.3312 187.345 22.1274Z" fill="#4F4C4D"/>
<path d="M139.218 36.1223C138.955 36.1223 138.709 36.0932 138.477 36.0418C136.887 35.6906 135.967 34.1503 135.739 31.4399C135.698 30.9864 135.679 30.5005 135.679 29.9816C135.679 29.6561 135.691 29.3457 135.707 29.0464C135.802 27.3741 136.156 26.1123 136.771 25.2993C137.478 24.3626 138.499 23.9077 139.894 23.9077C140.627 23.9077 141.36 23.9698 142.079 24.0934V35.2343C141.983 35.308 141.885 35.377 141.784 35.4424C141.072 35.8995 140.229 36.1223 139.218 36.1223ZM135.578 44.3958C134.967 44.4134 134.415 44.4084 133.973 44.3648C133.792 44.9721 133.912 45.5826 134.046 45.9773C134.167 46.3387 134.41 46.6721 134.796 46.7968C134.975 46.8416 135.242 46.8769 135.578 46.8945C135.745 46.9042 135.431 46.8931 135.633 46.8945C138.734 46.8505 140.697 46.0398 142.556 44.4694C143.158 43.9617 143.653 43.3883 144.066 42.7638C144.967 41.4065 145.431 39.7866 145.431 37.9113V22.0469L145.233 21.9922C143.586 21.5457 141.789 21.32 139.894 21.32C137.328 21.32 135.396 22.0312 134.161 23.4333C132.986 24.7656 132.376 26.8729 132.334 29.688C132.334 29.7857 132.329 29.8798 132.329 29.9816C132.329 31.1546 132.429 32.2024 132.621 33.1387C133.071 35.3205 134.037 36.8575 135.52 37.7423C136.52 38.3395 137.751 38.6424 139.218 38.6424C140.194 38.6424 141.155 38.4692 142.079 38.125V38.2422C142.079 39.9663 141.515 41.37 140.417 42.4289C140.329 42.516 140.242 42.6036 140.146 42.6869C139.127 43.5476 138.343 44.1067 136.701 44.2887C136.035 44.3638 135.825 44.3884 135.578 44.3958Z" fill="#4F4C4D"/>
</svg>
