<svg width="341" height="100" viewBox="0 0 341 100" fill="none" xmlns="http://www.w3.org/2000/svg">
<path d="M35.8621 57.2271C30.247 59.3497 27.645 60.8423 27.645 60.8423C27.0147 61.165 26.2182 61.9308 25.8779 62.5458L21.5843 70.2664C21.2433 70.8796 21.5194 71.2055 22.1974 70.9919C22.1974 70.9919 23.9208 70.4444 25.5932 69.9605C29.6558 68.7791 37.1645 67.0293 37.1645 67.0293C37.8578 66.8683 38.7038 66.2344 39.0448 65.6206L44.958 54.9876C45.2982 54.3726 45.0247 54.051 44.3482 54.27C44.3482 54.27 40.1386 55.6086 35.8621 57.2271Z" fill="#2f2f2f"/>
<path d="M74.0023 61.8033C74.712 61.7454 75.0133 61.1967 74.6723 60.5842L69.0108 50.4034C68.6691 49.789 67.8138 49.3713 67.1093 49.476L55.7664 51.3757C55.068 51.5128 54.7766 52.1258 55.1169 52.7389L60.2235 61.924C60.5653 62.5386 61.4233 62.9848 62.133 62.9211L74.0023 61.8033Z" fill="#2f2f2f"/>
<path d="M66.302 45.5319L60.6186 35.3095C60.2776 34.695 59.4494 34.3897 58.7807 34.6281C51.0262 36.8553 43.3552 40.2872 39.7105 42.6754C37.6931 43.9977 35.9387 45.4298 35.9387 45.4298C35.3918 45.8774 34.6647 46.7444 34.3231 47.3589L29.5495 55.9433C29.2091 56.5551 29.4568 56.8168 30.103 56.5207C30.103 56.5207 31.343 55.9543 32.7314 55.3782C37.4443 53.4179 42.6006 51.6975 48.0601 50.2693C48.1641 50.2432 48.2693 50.216 48.3726 50.1893C54.4122 48.6475 65.6445 46.851 65.6445 46.851C66.3469 46.7393 66.6436 46.1462 66.302 45.5319Z" fill="#2f2f2f"/>
<path d="M39.3922 39.5981C39.3922 39.5981 44.7756 36.4617 48.4256 34.9613C51.6354 33.6409 57.3406 32.0068 57.3406 32.0068C58.0246 31.8107 58.304 31.1488 57.9644 30.5351L52.6782 21.031C51.5864 19.2923 49.9008 19.3611 48.856 21.2395L48.8428 21.2492L38.8989 39.1317C38.5579 39.7449 38.7804 39.9553 39.3922 39.5981Z" fill="#2f2f2f"/>
<path d="M83.5193 76.495L77.4201 65.5277C77.0791 64.9145 76.3999 64.4371 75.9133 64.4645L75.4623 64.4962C52.8759 66.0277 36.3801 69.7564 26.5189 72.6123C23.5944 73.4593 20.1582 74.6199 20.1582 74.6199C19.4848 74.8466 19.0062 74.9738 18.3123 76.1468C18.3123 76.1468 18.2606 76.2417 18.1315 76.4767L18.1348 76.4858C17.2794 78.3142 18.258 79.7646 20.419 79.7646L20.527 79.7769H81.2337C83.3962 79.7769 84.3733 78.3221 83.5193 76.495Z" fill="#2f2f2f"/>
<path d="M98.1019 49.4239H107.187L104.949 41.4501C103.896 37.7421 102.973 33.3619 102.644 30.6658C102.249 33.3619 101.329 37.688 100.341 41.4501L98.1019 49.4239ZM108.306 53.5806H96.9824L94.4153 62.7937C94.2181 63.4126 94.0215 63.6918 91.9129 63.6918C91.1902 63.6918 89.8072 63.6354 88.5553 63.5254L100.275 24.8815C100.406 24.3206 101.131 24.0947 102.315 24.0947C103.236 24.0947 104.158 24.1519 104.817 24.2633L116.601 62.7356C116.731 63.356 116.402 63.6918 114.298 63.6918C113.507 63.6918 112.454 63.6919 111.137 63.5797L108.306 53.5806Z" fill="#2f2f2f"/>
<path d="M119.299 36.8452C121.868 35.889 126.213 34.9344 129.701 34.9344C136.612 34.9344 138.982 37.0131 138.982 42.4586V62.6803C138.982 63.5801 138.852 63.5801 133.454 63.5801V43.8071C133.454 40.2708 132.795 38.9232 129.504 38.9232C128.12 38.9232 126.08 39.2589 124.632 39.9342V62.6803C124.632 63.5801 124.5 63.5801 119.299 63.5801V36.8452Z" fill="#2f2f2f"/>
<path d="M143.787 24.3759C143.787 22.2957 144.709 22.2957 149.12 22.2957V37.123C151.161 35.6082 153.991 34.9359 156.494 34.9359C162.155 34.9359 163.34 37.6305 163.34 42.348V62.6811C163.34 63.5793 163.077 63.5793 157.81 63.5793V43.6406C157.81 41.1698 157.283 39.1476 154.058 39.1476C152.61 39.1476 150.701 39.5397 149.12 40.7211V62.6811C149.12 63.5793 149.054 63.5793 143.787 63.5793V24.3759Z" fill="#2f2f2f"/>
<path d="M177.558 49.8189C174.926 49.8189 172.687 50.605 172.687 55.492C172.687 59.5929 174.398 60.3223 176.967 60.3223C178.414 60.3223 179.861 59.8722 180.454 59.3685C180.653 57.5157 180.653 53.3576 180.653 50.3257C179.797 49.9868 178.48 49.8189 177.558 49.8189ZM167.88 36.4515C169 35.8333 172.884 34.9344 177.888 34.9344C183.547 34.9344 186.049 36.7324 186.049 41.7879V44.7641C186.049 51.223 185.984 57.963 185.656 62.2332C183.878 63.1299 180.783 64.1426 176.505 64.1426C171.699 64.1967 167.091 63.3001 167.091 55.6027C167.091 47.7974 171.435 46.3919 175.847 46.3919C177.294 46.3919 179.337 46.5612 180.653 47.1229V42.6861C180.653 40.0473 179.204 39.3727 176.57 39.3727C173.279 39.3727 169.791 39.9344 167.88 40.6089C167.289 39.71 167.157 38.6989 167.157 38.0243C167.157 37.407 167.355 36.7872 167.88 36.4515Z" fill="#2f2f2f"/>
<path d="M190.79 36.8452C193.359 35.889 197.702 34.9344 201.192 34.9344C208.102 34.9344 210.471 37.0131 210.471 42.4586V62.6803C210.471 63.5801 210.34 63.5801 204.942 63.5801V43.8071C204.942 40.2708 204.286 38.9232 200.992 38.9232C199.609 38.9232 197.57 39.2589 196.122 39.9342V62.6803C196.122 63.5801 195.991 63.5801 190.79 63.5801V36.8452Z" fill="#2f2f2f"/>
<path d="M260.11 62.1195C257.605 63.3 253.854 64.1417 250.302 64.1417C242.465 64.1417 240.424 61.1106 240.424 54.8181V36.4516C240.424 35.4968 240.424 35.4968 245.955 35.4968V55.2119C245.955 58.861 246.81 60.1538 250.367 60.1538C251.551 60.1538 253.394 59.9294 254.777 59.1433V36.4516C254.777 35.4968 254.843 35.4968 260.11 35.4968V62.1195Z" fill="#2f2f2f"/>
<path d="M270.18 48.4685C272.682 48.5266 276.764 48.4151 279.066 47.8534C279.331 46.8431 279.398 45.5511 279.398 44.482C279.331 40.439 278.477 38.9228 275.644 38.9228C272.946 38.9228 270.575 40.8884 270.18 48.4685ZM284.597 43.9769C284.597 46.4493 284.399 49.2576 283.874 51.2797C279.331 52.01 273.275 52.1779 270.113 52.1779C270.38 58.1318 272.221 59.7023 276.238 59.7023C278.872 59.7023 281.502 59.0314 283.743 57.9623C284.071 58.8064 284.203 60.1541 284.203 61.0515C284.203 62.7929 280.054 64.142 275.118 64.142C268.995 64.142 264.586 61.9504 264.586 50.9997C264.586 36.9546 270.445 34.9347 276.238 34.9347C281.765 34.9347 284.597 37.9115 284.597 43.9769Z" fill="#2f2f2f"/>
<path d="M288.611 37.4623C291.18 35.9452 294.34 34.9339 297.566 34.9339C300.923 34.9339 302.174 35.7773 302.174 37.2928C302.174 37.9117 302.044 39.0334 301.582 39.9904C300.594 39.5409 299.54 39.3158 298.422 39.3158C296.972 39.3158 295.328 39.7095 294.075 40.6086L294.012 62.6815C294.012 63.5796 293.946 63.5796 288.611 63.5796V37.4623Z" fill="#2f2f2f"/>
<path d="M314.682 49.8189C312.05 49.8189 309.809 50.605 309.809 55.492C309.809 59.5929 311.521 60.3223 314.089 60.3223C315.536 60.3223 316.986 59.8722 317.579 59.3685C317.774 57.5157 317.774 53.3576 317.774 50.3257C316.919 49.9868 315.601 49.8189 314.682 49.8189ZM305.004 36.4515C306.124 35.8333 310.009 34.9344 315.01 34.9344C320.673 34.9344 323.173 36.7324 323.173 41.7879V44.7641C323.173 51.223 323.106 57.963 322.778 62.2332C321.001 63.1299 317.907 64.1426 313.627 64.1426C308.822 64.1967 304.213 63.3001 304.213 55.6027C304.213 47.7974 308.559 46.3919 312.969 46.3919C314.417 46.3919 316.461 46.5612 317.774 47.1229V42.6861C317.774 40.0473 316.328 39.3727 313.692 39.3727C310.404 39.3727 306.913 39.9344 305.004 40.6089C304.414 39.71 304.281 38.6989 304.281 38.0243C304.281 37.407 304.478 36.7872 305.004 36.4515Z" fill="#2f2f2f"/>
<path d="M225.722 59.5059C225.289 59.5059 224.884 59.4579 224.501 59.3732C221.882 58.7947 220.368 56.2573 219.991 51.7924C219.924 51.0453 219.892 50.2448 219.892 49.3901C219.892 48.8537 219.911 48.3425 219.938 47.8494C220.095 45.0946 220.678 43.0159 221.691 41.6766C222.855 40.1335 224.538 39.3843 226.836 39.3843C228.044 39.3843 229.25 39.4865 230.435 39.6902V58.0431C230.278 58.1644 230.116 58.2782 229.95 58.3858C228.776 59.1388 227.388 59.5059 225.722 59.5059ZM219.726 73.1351C218.72 73.1641 217.809 73.1558 217.083 73.0841C216.783 74.0845 216.982 75.0903 217.202 75.7404C217.402 76.3357 217.802 76.885 218.438 77.0904C218.732 77.1643 219.172 77.2223 219.726 77.2514C220.002 77.2674 219.484 77.249 219.816 77.2514C224.925 77.1789 228.159 75.8434 231.221 73.2564C232.212 72.4201 233.029 71.4754 233.709 70.4467C235.192 68.2108 235.957 65.5422 235.957 62.453V36.3189L235.63 36.2287C232.917 35.4932 229.957 35.1214 226.836 35.1214C222.608 35.1214 219.426 36.2929 217.391 38.6027C215.457 40.7975 214.451 44.2689 214.382 48.9064C214.382 49.0674 214.373 49.2223 214.373 49.3901C214.373 51.3224 214.539 53.0484 214.854 54.5908C215.595 58.185 217.187 60.7171 219.63 62.1745C221.278 63.1583 223.306 63.6573 225.722 63.6573C227.33 63.6573 228.913 63.3719 230.435 62.8049V62.998C230.435 65.8382 229.506 68.1506 227.698 69.895C227.552 70.0385 227.409 70.1828 227.251 70.3199C225.572 71.7379 224.282 72.659 221.575 72.9588C220.479 73.0825 220.133 73.123 219.726 73.1351Z" fill="#2f2f2f"/>
</svg>
